<?xml version="1.0" encoding="iso-8859-1"?>
<!-- Generator: Adobe Illustrator 19.0.0, SVG Export Plug-In . SVG Version: 6.00 Build 0)  -->
<svg version="1.1" id="Layer_1" xmlns="http://www.w3.org/2000/svg" xmlns:xlink="http://www.w3.org/1999/xlink" x="0px" y="0px"
	 viewBox="0 0 512 512" style="enable-background:new 0 0 512 512;" xml:space="preserve">
<g>
	<g>
		<path d="M418.482,148.718c-13.749-51.161-46.631-94.11-92.701-121.044C279.345,0.528,225.3-6.957,173.604,6.593
			C121.906,20.147,78.485,53.183,51.339,99.62C24.193,146.055,16.707,200.1,30.259,251.797l0.256,0.979l57.181,147.6V512h227.673
			V424.43h115.173v-93.495l57.793-14.448L418.482,148.718z M394.825,303.048v85.665H279.652v87.569H123.413v-82.584L64.562,241.786
			c-10.792-42.178-4.552-86.226,17.612-124.14c22.331-38.199,58.018-65.368,100.486-76.501
			c42.468-11.133,86.894-4.966,125.093,17.365c38.2,22.331,65.368,58.018,76.502,100.486l0.314,1.195l54.84,131.712L394.825,303.048
			z"/>
	</g>
</g>
<g>
	<g>
		<path d="M145.913,154.084c-1.475-4.086-3.552-7.676-6.173-10.667c-2.629-3-5.787-5.387-9.385-7.096
			c-3.612-1.711-7.586-2.579-11.814-2.579c-4.229,0-8.204,0.868-11.815,2.58c-3.598,1.707-6.755,4.093-9.385,7.095
			c-2.623,2.991-4.701,6.58-6.172,10.667c-1.468,4.072-2.213,8.588-2.213,13.423c0,4.835,0.744,9.351,2.213,13.423
			c1.472,4.087,3.548,7.676,6.172,10.668c2.634,3.005,5.795,5.377,9.395,7.046c3.606,1.673,7.578,2.522,11.806,2.522
			c4.227,0,8.198-0.848,11.806-2.522c3.6-1.67,6.761-4.042,9.395-7.046c2.623-2.992,4.699-6.582,6.172-10.668
			c1.469-4.077,2.214-8.593,2.214-13.423C148.127,162.676,147.382,158.16,145.913,154.084z M123.135,176.932
			c-1.248,2.159-2.751,3.209-4.596,3.209c-1.989,0-3.563-1.05-4.81-3.21c-1.351-2.338-2.036-5.508-2.036-9.424
			c0-3.916,0.687-7.107,2.041-9.483c1.247-2.191,2.819-3.255,4.805-3.255c1.842,0,3.344,1.066,4.591,3.255
			c1.354,2.381,2.041,5.572,2.041,9.484C125.17,171.42,124.485,174.59,123.135,176.932z"/>
	</g>
</g>
<g>
	<g>
		<path d="M206.844,179.497v-42.968H184.13l-0.329,0.66c-0.239,0.479-0.87,1.33-2.521,2.657c-1.414,1.138-3.004,2.222-4.727,3.219
			c-1.731,1.005-3.488,1.884-5.221,2.611c-2.032,0.854-3.143,1.032-3.718,1.032h-1.191v21.026h1.191c1.45,0,3.097-0.229,4.895-0.679
			c1.77-0.443,3.543-1.039,5.267-1.774c1.723-0.732,3.306-1.535,4.705-2.381c0.427-0.258,0.825-0.521,1.193-0.789v17.386H168.46
			v20.597h51.993v-20.597H206.844z"/>
	</g>
</g>
<g>
	<g>
		<path d="M277.244,179.497v-42.968h-22.714l-0.329,0.66c-0.239,0.479-0.87,1.33-2.521,2.657c-1.414,1.138-3.003,2.222-4.727,3.219
			c-1.731,1.005-3.488,1.884-5.222,2.611c-2.031,0.854-3.143,1.032-3.717,1.032h-1.191v21.026h1.191
			c1.449,0,3.097-0.229,4.895-0.679c1.769-0.443,3.543-1.039,5.268-1.774c1.723-0.732,3.305-1.535,4.704-2.381
			c0.427-0.258,0.825-0.521,1.193-0.789v17.386H238.86v20.597h51.993v-20.597H277.244z"/>
	</g>
</g>
<g>
	<g>
		<path d="M364.289,154.085c-1.473-4.087-3.549-7.677-6.172-10.668c-2.63-3-5.786-5.387-9.387-7.096
			c-3.611-1.711-7.586-2.579-11.814-2.579c-4.229,0-8.204,0.868-11.815,2.58c-3.598,1.707-6.757,4.093-9.385,7.095
			c-2.623,2.991-4.699,6.58-6.172,10.667c-1.468,4.072-2.213,8.588-2.213,13.423c0,4.835,0.745,9.351,2.213,13.423
			c1.47,4.087,3.547,7.676,6.172,10.668c2.634,3.007,5.795,5.378,9.395,7.047c3.606,1.673,7.578,2.522,11.806,2.522
			c4.227,0,8.198-0.848,11.806-2.522c3.599-1.67,6.761-4.042,9.395-7.046c2.623-2.992,4.699-6.582,6.172-10.668
			c1.469-4.077,2.214-8.592,2.214-13.423S365.758,158.161,364.289,154.085z M341.511,176.932c-1.247,2.159-2.75,3.209-4.594,3.209
			c-1.99,0-3.562-1.05-4.809-3.21c-1.352-2.338-2.037-5.508-2.037-9.424c0-3.916,0.686-7.107,2.041-9.483
			c1.247-2.191,2.818-3.255,4.805-3.255c1.842,0,3.344,1.066,4.591,3.255c1.354,2.381,2.041,5.572,2.041,9.484
			C343.548,171.42,342.863,174.59,341.511,176.932z"/>
	</g>
</g>
<g>
	<g>
		<path d="M145.913,230.758c-1.475-4.086-3.552-7.676-6.173-10.667c-2.629-3-5.787-5.387-9.385-7.096
			c-3.612-1.711-7.586-2.579-11.814-2.579c-4.229,0-8.204,0.868-11.815,2.58c-3.598,1.707-6.755,4.093-9.385,7.095
			c-2.623,2.991-4.701,6.58-6.172,10.667c-1.468,4.072-2.213,8.588-2.213,13.423s0.744,9.351,2.213,13.423
			c1.472,4.087,3.548,7.676,6.172,10.668c2.634,3.005,5.795,5.377,9.395,7.046c3.606,1.673,7.578,2.522,11.806,2.522
			c4.227,0,8.198-0.848,11.806-2.522c3.6-1.67,6.761-4.042,9.395-7.046c2.623-2.992,4.699-6.582,6.172-10.668
			c1.469-4.077,2.214-8.592,2.214-13.423S147.382,234.834,145.913,230.758z M123.135,253.605c-1.248,2.159-2.751,3.209-4.596,3.209
			c-1.989,0-3.563-1.05-4.81-3.21c-1.351-2.338-2.036-5.508-2.036-9.424c0-3.915,0.687-7.105,2.041-9.483
			c1.247-2.191,2.819-3.255,4.805-3.255c1.842,0,3.344,1.066,4.591,3.255c1.354,2.381,2.041,5.572,2.041,9.484
			C125.17,248.093,124.485,251.263,123.135,253.605z"/>
	</g>
</g>
<g>
	<g>
		<path d="M206.844,256.171v-42.968H184.13l-0.329,0.66c-0.239,0.479-0.87,1.33-2.521,2.657c-1.414,1.138-3.004,2.222-4.727,3.219
			c-1.731,1.005-3.488,1.883-5.221,2.611c-2.032,0.854-3.143,1.032-3.718,1.032h-1.191v21.026h1.191c1.45,0,3.097-0.229,4.895-0.679
			c1.77-0.443,3.543-1.039,5.267-1.774c1.723-0.732,3.306-1.535,4.705-2.381c0.427-0.258,0.825-0.521,1.193-0.789v17.386H168.46
			v20.597h51.993v-20.597H206.844z"/>
	</g>
</g>
<g>
	<g>
		<path d="M293.889,230.758c-1.474-4.086-3.55-7.676-6.172-10.667c-2.63-3-5.786-5.387-9.387-7.096
			c-3.611-1.711-7.586-2.579-11.814-2.579c-4.229,0-8.204,0.868-11.815,2.58c-3.598,1.707-6.757,4.093-9.385,7.095
			c-2.623,2.991-4.699,6.58-6.172,10.667c-1.468,4.072-2.213,8.588-2.213,13.423s0.745,9.351,2.213,13.423
			c1.47,4.087,3.547,7.676,6.172,10.668c2.634,3.005,5.793,5.377,9.395,7.046c3.606,1.673,7.578,2.522,11.806,2.522
			c4.227,0,8.198-0.848,11.806-2.522c3.599-1.67,6.761-4.042,9.395-7.046c2.623-2.992,4.699-6.582,6.172-10.668
			c1.469-4.077,2.214-8.592,2.214-13.423S295.359,234.834,293.889,230.758z M271.111,253.605c-1.247,2.159-2.75,3.209-4.594,3.209
			c-1.99,0-3.562-1.05-4.809-3.21c-1.352-2.338-2.037-5.508-2.037-9.424c0-3.915,0.686-7.105,2.041-9.483
			c1.247-2.191,2.818-3.255,4.805-3.255c1.842,0,3.344,1.066,4.591,3.255c1.354,2.381,2.041,5.572,2.041,9.484
			C273.148,248.093,272.463,251.263,271.111,253.605z"/>
	</g>
</g>
<g>
	<g>
		<path d="M354.823,256.171v-42.968h-22.714l-0.329,0.66c-0.239,0.479-0.87,1.33-2.521,2.657c-1.414,1.138-3.003,2.222-4.727,3.219
			c-1.731,1.005-3.488,1.883-5.222,2.611c-2.031,0.854-3.143,1.032-3.717,1.032h-1.191v21.026h1.191c1.45,0,3.098-0.229,4.895-0.679
			c1.769-0.443,3.543-1.039,5.268-1.774c1.723-0.732,3.305-1.535,4.704-2.381c0.427-0.258,0.825-0.521,1.193-0.789v17.386h-15.215
			v20.597h51.993v-20.597H354.823z"/>
	</g>
</g>
<g>
</g>
<g>
</g>
<g>
</g>
<g>
</g>
<g>
</g>
<g>
</g>
<g>
</g>
<g>
</g>
<g>
</g>
<g>
</g>
<g>
</g>
<g>
</g>
<g>
</g>
<g>
</g>
<g>
</g>
</svg>
